<svg xmlns="http://www.w3.org/2000/svg" viewBox="0 0 32 32">
  <rect x="0" y="0" width="32" height="32" rx="8" ry="8" fill="#0a1208"/>
  <path d="M 0.0,17.0 L 0.5,17.25 L 1.0,17.49 L 1.5,17.73 L 2.0,17.96 L 2.5,18.18 L 3.0,18.39 L 3.5,18.59 L 4.0,18.77 L 4.5,18.93 L 5.0,19.08 L 5.5,19.2 L 6.0,19.31 L 6.5,19.39 L 7.0,19.45 L 7.5,19.49 L 8.0,19.5 L 8.5,19.49 L 9.0,19.45 L 9.5,19.39 L 10.0,19.31 L 10.5,19.2 L 11.0,19.08 L 11.5,18.93 L 12.0,18.77 L 12.5,18.59 L 13.0,18.39 L 13.5,18.18 L 14.0,17.96 L 14.5,17.73 L 15.0,17.49 L 15.5,17.25 L 16.0,17.0 L 16.5,16.75 L 17.0,16.51 L 17.5,16.27 L 18.0,16.04 L 18.5,15.82 L 19.0,15.61 L 19.5,15.41 L 20.0,15.23 L 20.5,15.07 L 21.0,14.92 L 21.5,14.8 L 22.0,14.69 L 22.5,14.61 L 23.0,14.55 L 23.5,14.51 L 24.0,14.5 L 24.5,14.51 L 25.0,14.55 L 25.5,14.61 L 26.0,14.69 L 26.5,14.8 L 27.0,14.92 L 27.5,15.07 L 28.0,15.23 L 28.5,15.41 L 29.0,15.61 L 29.5,15.82 L 30.0,16.04 L 30.5,16.27 L 31.0,16.51 L 31.5,16.75 L 32.0,17.0"
        fill="none" stroke="#7fe3da" stroke-width="1.6" stroke-linecap="round"/>
  <line x1="14" y1="6" x2="14" y2="17.96" stroke="#f2fdfb" stroke-width="1.7" stroke-linecap="round"/>
  <line x1="17" y1="16.51" x2="17" y2="26" stroke="#63d3ca" stroke-width="1.7" stroke-linecap="round"/>
</svg>
