<svg xmlns="http://www.w3.org/2000/svg" viewBox="0 0 64 64">
  <defs>
    <clipPath id="coin-clip">
      <circle cx="32" cy="32" r="30"/>
    </clipPath>
    <linearGradient id="water-grad" x1="0" y1="33" x2="0" y2="62" gradientUnits="userSpaceOnUse">
      <stop offset="0" stop-color="#7fe3da"/>
      <stop offset="1" stop-color="#0f5450"/>
    </linearGradient>
    <radialGradient id="glint-grad" cx="0.5" cy="0.5" r="0.5">
      <stop offset="0" stop-color="#ffffff" stop-opacity=".9"/>
      <stop offset="1" stop-color="#ffffff" stop-opacity="0"/>
    </radialGradient>
  </defs>

  <circle cx="32" cy="32" r="30" fill="#0a1208"/>

  <g clip-path="url(#coin-clip)">
    <path d="M 0.0,36.0 L 0.5,36.15 L 1.0,36.29 L 1.5,36.44 L 2.0,36.59 L 2.5,36.73 L 3.0,36.87 L 3.5,37.01 L 4.0,37.15 L 4.5,37.28 L 5.0,37.41 L 5.5,37.54 L 6.0,37.67 L 6.5,37.79 L 7.0,37.9 L 7.5,38.01 L 8.0,38.12 L 8.5,38.22 L 9.0,38.32 L 9.5,38.41 L 10.0,38.49 L 10.5,38.57 L 11.0,38.65 L 11.5,38.71 L 12.0,38.77 L 12.5,38.82 L 13.0,38.87 L 13.5,38.91 L 14.0,38.94 L 14.5,38.97 L 15.0,38.99 L 15.5,39.0 L 16.0,39.0 L 16.5,39.0 L 17.0,38.99 L 17.5,38.97 L 18.0,38.94 L 18.5,38.91 L 19.0,38.87 L 19.5,38.82 L 20.0,38.77 L 20.5,38.71 L 21.0,38.65 L 21.5,38.57 L 22.0,38.49 L 22.5,38.41 L 23.0,38.32 L 23.5,38.22 L 24.0,38.12 L 24.5,38.01 L 25.0,37.9 L 25.5,37.79 L 26.0,37.67 L 26.5,37.54 L 27.0,37.41 L 27.5,37.28 L 28.0,37.15 L 28.5,37.01 L 29.0,36.87 L 29.5,36.73 L 30.0,36.59 L 30.5,36.44 L 31.0,36.29 L 31.5,36.15 L 32.0,36.0 L 32.5,35.85 L 33.0,35.71 L 33.5,35.56 L 34.0,35.41 L 34.5,35.27 L 35.0,35.13 L 35.5,34.99 L 36.0,34.85 L 36.5,34.72 L 37.0,34.59 L 37.5,34.46 L 38.0,34.33 L 38.5,34.21 L 39.0,34.1 L 39.5,33.99 L 40.0,33.88 L 40.5,33.78 L 41.0,33.68 L 41.5,33.59 L 42.0,33.51 L 42.5,33.43 L 43.0,33.35 L 43.5,33.29 L 44.0,33.23 L 44.5,33.18 L 45.0,33.13 L 45.5,33.09 L 46.0,33.06 L 46.5,33.03 L 47.0,33.01 L 47.5,33.0 L 48.0,33.0 L 48.5,33.0 L 49.0,33.01 L 49.5,33.03 L 50.0,33.06 L 50.5,33.09 L 51.0,33.13 L 51.5,33.18 L 52.0,33.23 L 52.5,33.29 L 53.0,33.35 L 53.5,33.43 L 54.0,33.51 L 54.5,33.59 L 55.0,33.68 L 55.5,33.78 L 56.0,33.88 L 56.5,33.99 L 57.0,34.1 L 57.5,34.21 L 58.0,34.33 L 58.5,34.46 L 59.0,34.59 L 59.5,34.72 L 60.0,34.85 L 60.5,34.99 L 61.0,35.13 L 61.5,35.27 L 62.0,35.41 L 62.5,35.56 L 63.0,35.71 L 63.5,35.85 L 64.0,36.0 L 64,64 L 0,64 Z"
          fill="url(#water-grad)"/>
    <path d="M 0.0,36.0 L 0.5,36.15 L 1.0,36.29 L 1.5,36.44 L 2.0,36.59 L 2.5,36.73 L 3.0,36.87 L 3.5,37.01 L 4.0,37.15 L 4.5,37.28 L 5.0,37.41 L 5.5,37.54 L 6.0,37.67 L 6.5,37.79 L 7.0,37.9 L 7.5,38.01 L 8.0,38.12 L 8.5,38.22 L 9.0,38.32 L 9.5,38.41 L 10.0,38.49 L 10.5,38.57 L 11.0,38.65 L 11.5,38.71 L 12.0,38.77 L 12.5,38.82 L 13.0,38.87 L 13.5,38.91 L 14.0,38.94 L 14.5,38.97 L 15.0,38.99 L 15.5,39.0 L 16.0,39.0 L 16.5,39.0 L 17.0,38.99 L 17.5,38.97 L 18.0,38.94 L 18.5,38.91 L 19.0,38.87 L 19.5,38.82 L 20.0,38.77 L 20.5,38.71 L 21.0,38.65 L 21.5,38.57 L 22.0,38.49 L 22.5,38.41 L 23.0,38.32 L 23.5,38.22 L 24.0,38.12 L 24.5,38.01 L 25.0,37.9 L 25.5,37.79 L 26.0,37.67 L 26.5,37.54 L 27.0,37.41 L 27.5,37.28 L 28.0,37.15 L 28.5,37.01 L 29.0,36.87 L 29.5,36.73 L 30.0,36.59 L 30.5,36.44 L 31.0,36.29 L 31.5,36.15 L 32.0,36.0 L 32.5,35.85 L 33.0,35.71 L 33.5,35.56 L 34.0,35.41 L 34.5,35.27 L 35.0,35.13 L 35.5,34.99 L 36.0,34.85 L 36.5,34.72 L 37.0,34.59 L 37.5,34.46 L 38.0,34.33 L 38.5,34.21 L 39.0,34.1 L 39.5,33.99 L 40.0,33.88 L 40.5,33.78 L 41.0,33.68 L 41.5,33.59 L 42.0,33.51 L 42.5,33.43 L 43.0,33.35 L 43.5,33.29 L 44.0,33.23 L 44.5,33.18 L 45.0,33.13 L 45.5,33.09 L 46.0,33.06 L 46.5,33.03 L 47.0,33.01 L 47.5,33.0 L 48.0,33.0 L 48.5,33.0 L 49.0,33.01 L 49.5,33.03 L 50.0,33.06 L 50.5,33.09 L 51.0,33.13 L 51.5,33.18 L 52.0,33.23 L 52.5,33.29 L 53.0,33.35 L 53.5,33.43 L 54.0,33.51 L 54.5,33.59 L 55.0,33.68 L 55.5,33.78 L 56.0,33.88 L 56.5,33.99 L 57.0,34.1 L 57.5,34.21 L 58.0,34.33 L 58.5,34.46 L 59.0,34.59 L 59.5,34.72 L 60.0,34.85 L 60.5,34.99 L 61.0,35.13 L 61.5,35.27 L 62.0,35.41 L 62.5,35.56 L 63.0,35.71 L 63.5,35.85 L 64.0,36.0"
          fill="none" stroke="#eafcfb" stroke-width="1.5"/>
  </g>

  <!-- meridian: straight above the surface -->
  <line x1="24" y1="12" x2="24" y2="38.12" stroke="#f2fdfb" stroke-width="2.2" stroke-linecap="round"/>
  <circle cx="24" cy="12" r="2.1" fill="#f2fdfb"/>

  <!-- meridian: bent where it crosses the waterline, dimmed underwater -->
  <line x1="29" y1="36.87" x2="29" y2="50" stroke="#dff6f2" stroke-width="2.2" stroke-linecap="round" opacity=".62"/>
  <circle cx="29" cy="50" r="2.3" fill="#7fe3da"/>

  <!-- coin rim -->
  <circle cx="32" cy="32" r="29.4" fill="none" stroke="rgba(150,230,225,.4)" stroke-width="1.3"/>
  <circle cx="32" cy="32" r="27.6" fill="none" stroke="rgba(0,0,0,.35)" stroke-width="1"/>

  <!-- glint -->
  <circle cx="13" cy="11" r="6" fill="url(#glint-grad)"/>
</svg>
