<svg xmlns="http://www.w3.org/2000/svg" viewBox="0 0 64 64" role="img" aria-label="Meridian Pool Care">
  
  <defs>
    <radialGradient id="mmFace" cx="0.5" cy="0.42" r="0.75"><stop offset="0" stop-color="#0e2016"/><stop offset="1" stop-color="#070f0a"/></radialGradient>
    <linearGradient id="mmWater" x1="0" y1="34" x2="0" y2="62" gradientUnits="userSpaceOnUse"><stop offset="0" stop-color="#83ece0"/><stop offset="0.5" stop-color="#34b0a5"/><stop offset="1" stop-color="#0d4a45"/></linearGradient>
    <linearGradient id="mmRod" x1="0" y1="10" x2="0" y2="37" gradientUnits="userSpaceOnUse"><stop offset="0" stop-color="#ffffff"/><stop offset="1" stop-color="#e6f8f4"/></linearGradient>
    <radialGradient id="mmHalo" cx="0.5" cy="0.5" r="0.5"><stop offset="0" stop-color="#fffdf0" stop-opacity="0.9"/><stop offset="0.55" stop-color="#eafcfb" stop-opacity="0.28"/><stop offset="1" stop-color="#eafcfb" stop-opacity="0"/></radialGradient>
    <radialGradient id="mmSheen" cx="0.5" cy="0.5" r="0.5"><stop offset="0" stop-color="#ffffff" stop-opacity="0.5"/><stop offset="1" stop-color="#ffffff" stop-opacity="0"/></radialGradient>
    <clipPath id="mmCoin"><circle cx="32" cy="32" r="30"/></clipPath>
  </defs>
  <circle cx="32" cy="32" r="30" fill="url(#mmFace)"/>
  <g clip-path="url(#mmCoin)">
    <path d="M 0.0,36.0 L 0.5,36.128 L 1.0,36.255 L 1.5,36.381 L 2.0,36.507 L 2.5,36.632 L 3.0,36.755 L 3.5,36.876 L 4.0,36.995 L 4.5,37.112 L 5.0,37.226 L 5.5,37.337 L 6.0,37.444 L 6.5,37.549 L 7.0,37.649 L 7.5,37.746 L 8.0,37.838 L 8.5,37.926 L 9.0,38.01 L 9.5,38.088 L 10.0,38.162 L 10.5,38.23 L 11.0,38.293 L 11.5,38.35 L 12.0,38.402 L 12.5,38.448 L 13.0,38.488 L 13.5,38.522 L 14.0,38.55 L 14.5,38.572 L 15.0,38.587 L 15.5,38.597 L 16.0,38.6 L 16.5,38.597 L 17.0,38.587 L 17.5,38.572 L 18.0,38.55 L 18.5,38.522 L 19.0,38.488 L 19.5,38.448 L 20.0,38.402 L 20.5,38.35 L 21.0,38.293 L 21.5,38.23 L 22.0,38.162 L 22.5,38.088 L 23.0,38.01 L 23.5,37.926 L 24.0,37.838 L 24.5,37.746 L 25.0,37.649 L 25.5,37.549 L 26.0,37.444 L 26.5,37.337 L 27.0,37.226 L 27.5,37.112 L 28.0,36.995 L 28.5,36.876 L 29.0,36.755 L 29.5,36.632 L 30.0,36.507 L 30.5,36.381 L 31.0,36.255 L 31.5,36.128 L 32.0,36.0 L 32.5,35.872 L 33.0,35.745 L 33.5,35.619 L 34.0,35.493 L 34.5,35.368 L 35.0,35.245 L 35.5,35.124 L 36.0,35.005 L 36.5,34.888 L 37.0,34.774 L 37.5,34.663 L 38.0,34.556 L 38.5,34.451 L 39.0,34.351 L 39.5,34.254 L 40.0,34.162 L 40.5,34.074 L 41.0,33.99 L 41.5,33.912 L 42.0,33.838 L 42.5,33.77 L 43.0,33.707 L 43.5,33.65 L 44.0,33.598 L 44.5,33.552 L 45.0,33.512 L 45.5,33.478 L 46.0,33.45 L 46.5,33.428 L 47.0,33.413 L 47.5,33.403 L 48.0,33.4 L 48.5,33.403 L 49.0,33.413 L 49.5,33.428 L 50.0,33.45 L 50.5,33.478 L 51.0,33.512 L 51.5,33.552 L 52.0,33.598 L 52.5,33.65 L 53.0,33.707 L 53.5,33.77 L 54.0,33.838 L 54.5,33.912 L 55.0,33.99 L 55.5,34.074 L 56.0,34.162 L 56.5,34.254 L 57.0,34.351 L 57.5,34.451 L 58.0,34.556 L 58.5,34.663 L 59.0,34.774 L 59.5,34.888 L 60.0,35.005 L 60.5,35.124 L 61.0,35.245 L 61.5,35.368 L 62.0,35.493 L 62.5,35.619 L 63.0,35.745 L 63.5,35.872 L 64.0,36.0 L 64,64 L 0,64 Z" fill="url(#mmWater)"/>
    <g stroke="#e2faf5" stroke-linecap="round" fill="none" opacity="0.15"><path d="M 7,47 Q 20,43 31,48 T 57,46" stroke-width="1"/><path d="M 9,55 Q 24,51 35,55 T 58,54" stroke-width="0.8" opacity="0.7"/></g>
    <line x1="29.0" y1="36.755" x2="35.6" y2="51.5" stroke="#a6ede3" stroke-width="2.4" stroke-linecap="round" opacity="0.9"/>
    <circle cx="35.6" cy="51.5" r="2.3" fill="#7fe3da"/>
    <path d="M 0.0,36.0 L 0.5,36.128 L 1.0,36.255 L 1.5,36.381 L 2.0,36.507 L 2.5,36.632 L 3.0,36.755 L 3.5,36.876 L 4.0,36.995 L 4.5,37.112 L 5.0,37.226 L 5.5,37.337 L 6.0,37.444 L 6.5,37.549 L 7.0,37.649 L 7.5,37.746 L 8.0,37.838 L 8.5,37.926 L 9.0,38.01 L 9.5,38.088 L 10.0,38.162 L 10.5,38.23 L 11.0,38.293 L 11.5,38.35 L 12.0,38.402 L 12.5,38.448 L 13.0,38.488 L 13.5,38.522 L 14.0,38.55 L 14.5,38.572 L 15.0,38.587 L 15.5,38.597 L 16.0,38.6 L 16.5,38.597 L 17.0,38.587 L 17.5,38.572 L 18.0,38.55 L 18.5,38.522 L 19.0,38.488 L 19.5,38.448 L 20.0,38.402 L 20.5,38.35 L 21.0,38.293 L 21.5,38.23 L 22.0,38.162 L 22.5,38.088 L 23.0,38.01 L 23.5,37.926 L 24.0,37.838 L 24.5,37.746 L 25.0,37.649 L 25.5,37.549 L 26.0,37.444 L 26.5,37.337 L 27.0,37.226 L 27.5,37.112 L 28.0,36.995 L 28.5,36.876 L 29.0,36.755 L 29.5,36.632 L 30.0,36.507 L 30.5,36.381 L 31.0,36.255 L 31.5,36.128 L 32.0,36.0 L 32.5,35.872 L 33.0,35.745 L 33.5,35.619 L 34.0,35.493 L 34.5,35.368 L 35.0,35.245 L 35.5,35.124 L 36.0,35.005 L 36.5,34.888 L 37.0,34.774 L 37.5,34.663 L 38.0,34.556 L 38.5,34.451 L 39.0,34.351 L 39.5,34.254 L 40.0,34.162 L 40.5,34.074 L 41.0,33.99 L 41.5,33.912 L 42.0,33.838 L 42.5,33.77 L 43.0,33.707 L 43.5,33.65 L 44.0,33.598 L 44.5,33.552 L 45.0,33.512 L 45.5,33.478 L 46.0,33.45 L 46.5,33.428 L 47.0,33.413 L 47.5,33.403 L 48.0,33.4 L 48.5,33.403 L 49.0,33.413 L 49.5,33.428 L 50.0,33.45 L 50.5,33.478 L 51.0,33.512 L 51.5,33.552 L 52.0,33.598 L 52.5,33.65 L 53.0,33.707 L 53.5,33.77 L 54.0,33.838 L 54.5,33.912 L 55.0,33.99 L 55.5,34.074 L 56.0,34.162 L 56.5,34.254 L 57.0,34.351 L 57.5,34.451 L 58.0,34.556 L 58.5,34.663 L 59.0,34.774 L 59.5,34.888 L 60.0,35.005 L 60.5,35.124 L 61.0,35.245 L 61.5,35.368 L 62.0,35.493 L 62.5,35.619 L 63.0,35.745 L 63.5,35.872 L 64.0,36.0" fill="none" stroke="#eafcfb" stroke-width="1.4" stroke-linecap="round"/>
    <path d="M 0.0,36.0 L 0.5,36.128 L 1.0,36.255 L 1.5,36.381 L 2.0,36.507 L 2.5,36.632 L 3.0,36.755 L 3.5,36.876 L 4.0,36.995 L 4.5,37.112 L 5.0,37.226 L 5.5,37.337 L 6.0,37.444 L 6.5,37.549 L 7.0,37.649 L 7.5,37.746 L 8.0,37.838 L 8.5,37.926 L 9.0,38.01 L 9.5,38.088 L 10.0,38.162 L 10.5,38.23 L 11.0,38.293 L 11.5,38.35 L 12.0,38.402 L 12.5,38.448 L 13.0,38.488 L 13.5,38.522 L 14.0,38.55 L 14.5,38.572 L 15.0,38.587 L 15.5,38.597 L 16.0,38.6 L 16.5,38.597 L 17.0,38.587 L 17.5,38.572 L 18.0,38.55 L 18.5,38.522 L 19.0,38.488 L 19.5,38.448 L 20.0,38.402 L 20.5,38.35 L 21.0,38.293 L 21.5,38.23 L 22.0,38.162 L 22.5,38.088 L 23.0,38.01 L 23.5,37.926 L 24.0,37.838 L 24.5,37.746 L 25.0,37.649 L 25.5,37.549 L 26.0,37.444 L 26.5,37.337 L 27.0,37.226 L 27.5,37.112 L 28.0,36.995 L 28.5,36.876 L 29.0,36.755 L 29.5,36.632 L 30.0,36.507 L 30.5,36.381 L 31.0,36.255 L 31.5,36.128 L 32.0,36.0 L 32.5,35.872 L 33.0,35.745 L 33.5,35.619 L 34.0,35.493 L 34.5,35.368 L 35.0,35.245 L 35.5,35.124 L 36.0,35.005 L 36.5,34.888 L 37.0,34.774 L 37.5,34.663 L 38.0,34.556 L 38.5,34.451 L 39.0,34.351 L 39.5,34.254 L 40.0,34.162 L 40.5,34.074 L 41.0,33.99 L 41.5,33.912 L 42.0,33.838 L 42.5,33.77 L 43.0,33.707 L 43.5,33.65 L 44.0,33.598 L 44.5,33.552 L 45.0,33.512 L 45.5,33.478 L 46.0,33.45 L 46.5,33.428 L 47.0,33.413 L 47.5,33.403 L 48.0,33.4 L 48.5,33.403 L 49.0,33.413 L 49.5,33.428 L 50.0,33.45 L 50.5,33.478 L 51.0,33.512 L 51.5,33.552 L 52.0,33.598 L 52.5,33.65 L 53.0,33.707 L 53.5,33.77 L 54.0,33.838 L 54.5,33.912 L 55.0,33.99 L 55.5,34.074 L 56.0,34.162 L 56.5,34.254 L 57.0,34.351 L 57.5,34.451 L 58.0,34.556 L 58.5,34.663 L 59.0,34.774 L 59.5,34.888 L 60.0,35.005 L 60.5,35.124 L 61.0,35.245 L 61.5,35.368 L 62.0,35.493 L 62.5,35.619 L 63.0,35.745 L 63.5,35.872 L 64.0,36.0" fill="none" stroke="#eafcfb" stroke-width="3" stroke-linecap="round" opacity="0.15"/>
  </g>
  <line x1="29.0" y1="13" x2="29.0" y2="36.755" stroke="url(#mmRod)" stroke-width="2.4" stroke-linecap="round"/>
  <ellipse cx="29.0" cy="36.755" rx="2.3" ry="0.8" fill="#eafcfb" opacity="0.45"/>
  <circle cx="29.0" cy="11.5" r="6.5" fill="url(#mmHalo)"/>
  <circle cx="29.0" cy="11.5" r="2.5" fill="#fffdf3"/>
  <circle cx="32" cy="32" r="29.1" fill="none" stroke="#070f0a" stroke-width="1.5"/>
  <circle cx="32" cy="32" r="29.1" fill="none" stroke="rgba(160,235,228,0.42)" stroke-width="1"/>
  <ellipse cx="18" cy="15" rx="9" ry="5.5" fill="url(#mmSheen)" opacity="0.4" clip-path="url(#mmCoin)"/>

</svg>